<?xml version="1.0" encoding="UTF-8"?>
<!DOCTYPE svg PUBLIC "-//W3C//DTD SVG 1.1//EN" "http://www.w3.org/Graphics/SVG/1.1/DTD/svg11.dtd">
<!-- Creator: CorelDRAW X8 -->
<svg xmlns="http://www.w3.org/2000/svg" xml:space="preserve" width="7.408mm" height="5.556mm" version="1.1" style="shape-rendering:geometricPrecision; text-rendering:geometricPrecision; image-rendering:optimizeQuality; fill-rule:evenodd; clip-rule:evenodd"
viewBox="0 0 741 556"
 xmlns:xlink="http://www.w3.org/1999/xlink">
 <defs>
  <style type="text/css">
   <![CDATA[
    .fil0 {fill:#50E3C2}
    .fil1 {fill:white}
   ]]>
  </style>
 </defs>
 <g id="Capa_x0020_1">
  <metadata id="CorelCorpID_0Corel-Layer"/>
  <g id="_2190386736448">
   <path id="icon-favoritos" class="fil0" d="M432 0l0 62 -34 0 -27 0 -1 0 -20 0 -42 0 0 -62 -185 0 0 62 -61 0 0 61 -62 0 0 62 0 62 62 0 0 62 61 0 0 61 62 0 0 62 62 0 0 62 61 0 0 62 124 0 0 -62 62 0 0 -62 62 0 0 -62 61 0 0 -61 62 0 0 -62 62 0 0 -124 -62 0 0 -61 -62 0 0 -62 -185 0zm-309 116l62 0 0 -62 62 0 0 62 -62 0 0 63 -62 0 0 -63z"/>
   <polygon class="fil1" points="247,432 494,432 494,370 247,370 "/>
   <polygon class="fil1" points="247,247 308,247 308,309 247,309 "/>
   <polygon class="fil1" points="432,247 494,247 494,309 432,309 "/>
  </g>
 </g>
</svg>
